<svg version="1.1" viewBox="0.0 0.0 960.0 540.0" fill="none" stroke="none" stroke-linecap="square" stroke-miterlimit="10" xmlns:xlink="http://www.w3.org/1999/xlink" xmlns="http://www.w3.org/2000/svg"><clipPath id="p.0"><path d="m0 0l960.0 0l0 540.0l-960.0 0l0 -540.0z" clip-rule="nonzero"/></clipPath><g clip-path="url(#p.0)"><path fill="#ffffff" d="m0 0l960.0 0l0 540.0l-960.0 0z" fill-rule="evenodd"/><defs><radialGradient id="p.1" gradientUnits="userSpaceOnUse" gradientTransform="matrix(4.932080005512306 0.0 0.0 4.932080005512306 0.0 0.0)" spreadMethod="pad" cx="79.60896717749134" cy="49.0473616690442" fx="79.60896717749134" fy="49.0473616690442" r="4.932079792022705"><stop offset="0.0" stop-color="#f5d0d0"/><stop offset="1.0" stop-color="#d96868"/></radialGradient></defs><path fill="url(#p.1)" d="m375.80316 241.90552l0 0c0 -9.697601 7.5371094 -17.559067 16.834625 -17.559067l0 0c4.4648438 0 8.746796 1.8499756 11.9039 5.142929c3.1571045 3.2929688 4.9307556 7.759186 4.9307556 12.416138l0 0c0 9.697586 -7.53714 17.559052 -16.834656 17.559052l0 0c-9.297516 0 -16.834625 -7.8614655 -16.834625 -17.559052z" fill-rule="evenodd"/><path stroke="#595959" stroke-width="1.0" stroke-linejoin="round" stroke-linecap="butt" d="m375.80316 241.90552l0 0c0 -9.697601 7.5371094 -17.559067 16.834625 -17.559067l0 0c4.4648438 0 8.746796 1.8499756 11.9039 5.142929c3.1571045 3.2929688 4.9307556 7.759186 4.9307556 12.416138l0 0c0 9.697586 -7.53714 17.559052 -16.834656 17.559052l0 0c-9.297516 0 -16.834625 -7.8614655 -16.834625 -17.559052z" fill-rule="evenodd"/><defs><linearGradient id="p.2" gradientUnits="userSpaceOnUse" gradientTransform="matrix(5.92606389333865 0.0 0.0 5.92606389333865 0.0 0.0)" spreadMethod="pad" x1="75.31655356654646" y1="8.948392949186463" x2="75.31653280546486" y2="14.874456842488746"><stop offset="0.0" stop-color="#fff6db"/><stop offset="1.0" stop-color="#fad25c"/></linearGradient></defs><path fill="url(#p.2)" d="m446.33072 70.58793l0 0c0 -9.697601 7.5371094 -17.55906 16.834625 -17.55906l0 0c4.4648438 0 8.746796 1.849968 11.9039 5.142929c3.1571045 3.2929611 4.9307556 7.759178 4.9307556 12.41613l0 0c0 9.697594 -7.53714 17.559052 -16.834656 17.559052l0 0c-9.297516 0 -16.834625 -7.861458 -16.834625 -17.559052z" fill-rule="evenodd"/><path stroke="#595959" stroke-width="1.0" stroke-linejoin="round" stroke-linecap="butt" d="m446.33072 70.58793l0 0c0 -9.697601 7.5371094 -17.55906 16.834625 -17.55906l0 0c4.4648438 0 8.746796 1.849968 11.9039 5.142929c3.1571045 3.2929611 4.9307556 7.759178 4.9307556 12.41613l0 0c0 9.697594 -7.53714 17.559052 -16.834656 17.559052l0 0c-9.297516 0 -16.834625 -7.861458 -16.834625 -17.559052z" fill-rule="evenodd"/><defs><radialGradient id="p.3" gradientUnits="userSpaceOnUse" gradientTransform="matrix(4.932080005512306 0.0 0.0 4.932080005512306 0.0 0.0)" spreadMethod="pad" cx="116.31014054801086" cy="37.83202035906974" fx="116.31014054801086" fy="37.83202035906974" r="4.932079792022705"><stop offset="0.0" stop-color="#dbd4eb"/><stop offset="1.0" stop-color="#9180bb"/></radialGradient></defs><path fill="url(#p.3)" d="m556.8163 186.59055l0 0c0 -9.697586 7.5371094 -17.559052 16.834656 -17.559052l0 0c4.4647827 0 8.746765 1.8499756 11.90387 5.142929c3.1571045 3.2929688 4.930725 7.7591705 4.930725 12.416122l0 0c0 9.697601 -7.5371094 17.559067 -16.834595 17.559067l0 0c-9.297546 0 -16.834656 -7.8614655 -16.834656 -17.559067z" fill-rule="evenodd"/><path stroke="#595959" stroke-width="1.0" stroke-linejoin="round" stroke-linecap="butt" d="m556.8163 186.59055l0 0c0 -9.697586 7.5371094 -17.559052 16.834656 -17.559052l0 0c4.4647827 0 8.746765 1.8499756 11.90387 5.142929c3.1571045 3.2929688 4.930725 7.7591705 4.930725 12.416122l0 0c0 9.697601 -7.5371094 17.559067 -16.834595 17.559067l0 0c-9.297546 0 -16.834656 -7.8614655 -16.834656 -17.559067z" fill-rule="evenodd"/><defs><radialGradient id="p.4" gradientUnits="userSpaceOnUse" gradientTransform="matrix(4.932080005512306 0.0 0.0 4.932080005512306 0.0 0.0)" spreadMethod="pad" cx="116.31014054801086" cy="26.26066180893523" fx="116.31014054801086" fy="26.26066180893523" r="4.932079792022705"><stop offset="0.0" stop-color="#d4e5f5"/><stop offset="1.0" stop-color="#70a4d5"/></radialGradient></defs><path fill="url(#p.4)" d="m556.8163 129.51968l0 0c0 -9.697594 7.5371094 -17.559052 16.834656 -17.559052l0 0c4.4647827 0 8.746765 1.849968 11.90387 5.142929c3.1571045 3.2929611 4.930725 7.7591705 4.930725 12.416122l0 0c0 9.697601 -7.5371094 17.559052 -16.834595 17.559052l0 0c-9.297546 0 -16.834656 -7.86145 -16.834656 -17.559052z" fill-rule="evenodd"/><path stroke="#595959" stroke-width="1.0" stroke-linejoin="round" stroke-linecap="butt" d="m556.8163 129.51968l0 0c0 -9.697594 7.5371094 -17.559052 16.834656 -17.559052l0 0c4.4647827 0 8.746765 1.849968 11.90387 5.142929c3.1571045 3.2929611 4.930725 7.7591705 4.930725 12.416122l0 0c0 9.697601 -7.5371094 17.559052 -16.834595 17.559052l0 0c-9.297546 0 -16.834656 -7.86145 -16.834656 -17.559052z" fill-rule="evenodd"/><defs><radialGradient id="p.5" gradientUnits="userSpaceOnUse" gradientTransform="matrix(4.932080005512306 0.0 0.0 4.932080005512306 0.0 0.0)" spreadMethod="pad" cx="114.5704987571541" cy="51.18346511000446" fx="114.5704987571541" fy="51.18346511000446" r="4.932079792022705"><stop offset="0.0" stop-color="#dcecd5"/><stop offset="1.0" stop-color="#93bc81"/></radialGradient></defs><path fill="url(#p.5)" d="m548.2362 252.44095l0 0c0 -9.697601 7.5371704 -17.559052 16.834656 -17.559052l0 0c4.4648438 0 8.746765 1.8499603 11.90387 5.142914c3.1571655 3.2929688 4.930786 7.759186 4.930786 12.416138l0 0c0 9.697601 -7.5371094 17.559052 -16.834656 17.559052l0 0c-9.297485 0 -16.834656 -7.86145 -16.834656 -17.559052z" fill-rule="evenodd"/><path stroke="#595959" stroke-width="1.0" stroke-linejoin="round" stroke-linecap="butt" d="m548.2362 252.44095l0 0c0 -9.697601 7.5371704 -17.559052 16.834656 -17.559052l0 0c4.4648438 0 8.746765 1.8499603 11.90387 5.142914c3.1571655 3.2929688 4.930786 7.759186 4.930786 12.416138l0 0c0 9.697601 -7.5371094 17.559052 -16.834656 17.559052l0 0c-9.297485 0 -16.834656 -7.86145 -16.834656 -17.559052z" fill-rule="evenodd"/><defs><radialGradient id="p.6" gradientUnits="userSpaceOnUse" gradientTransform="matrix(4.932080005512306 0.0 0.0 4.932080005512306 0.0 0.0)" spreadMethod="pad" cx="100.73531757676425" cy="24.48057560813501" fx="100.73531757676425" fy="24.48057560813501" r="4.932079792022705"><stop offset="0.0" stop-color="#f2f2f2"/><stop offset="1.0" stop-color="#a6a6a6"/></radialGradient></defs><path fill="url(#p.6)" d="m480.0 120.74016l0 0c0 -9.697601 7.53714 -17.55906 16.834656 -17.55906l0 0c4.464813 0 8.746765 1.849968 11.90387 5.142929c3.157135 3.2929611 4.930786 7.759178 4.930786 12.41613l0 0c0 9.697601 -7.53714 17.559052 -16.834656 17.559052l0 0c-9.297516 0 -16.834656 -7.86145 -16.834656 -17.559052z" fill-rule="evenodd"/><path stroke="#595959" stroke-width="1.0" stroke-linejoin="round" stroke-linecap="butt" d="m480.0 120.74016l0 0c0 -9.697601 7.53714 -17.55906 16.834656 -17.55906l0 0c4.464813 0 8.746765 1.849968 11.90387 5.142929c3.157135 3.2929611 4.930786 7.759178 4.930786 12.41613l0 0c0 9.697601 -7.53714 17.559052 -16.834656 17.559052l0 0c-9.297516 0 -16.834656 -7.86145 -16.834656 -17.559052z" fill-rule="evenodd"/><path fill="#000000" fill-opacity="0.0" d="m392.6378 224.34645l58.614197 -141.35432" fill-rule="evenodd"/><path stroke="#595959" stroke-width="3.0" stroke-linejoin="round" stroke-linecap="butt" stroke-dasharray="3.0,9.0" d="m392.6378 224.34645l58.614197 -141.35432" fill-rule="evenodd"/><path fill="#000000" fill-opacity="0.0" d="m404.5417 229.48938l80.37796 -96.34645" fill-rule="evenodd"/><path stroke="#595959" stroke-width="3.0" stroke-linejoin="round" stroke-linecap="butt" stroke-dasharray="3.0,9.0" d="m404.5417 229.48938l80.37796 -96.34645" fill-rule="evenodd"/><path fill="#000000" fill-opacity="0.0" d="m409.47244 241.90552l152.28348 -99.968506" fill-rule="evenodd"/><path stroke="#595959" stroke-width="3.0" stroke-linejoin="round" stroke-linecap="butt" stroke-dasharray="3.0,9.0" d="m409.47244 241.90552l152.28348 -99.968506" fill-rule="evenodd"/><path fill="#000000" fill-opacity="0.0" d="m409.47244 241.90552l147.3386 -55.3071" fill-rule="evenodd"/><path stroke="#595959" stroke-width="3.0" stroke-linejoin="round" stroke-linecap="butt" stroke-dasharray="3.0,9.0" d="m409.47244 241.90552l147.3386 -55.3071" fill-rule="evenodd"/><path fill="#000000" fill-opacity="0.0" d="m404.5417 254.32164l143.68506 -1.8897705" fill-rule="evenodd"/><path stroke="#595959" stroke-width="3.0" stroke-linejoin="round" stroke-linecap="butt" stroke-dasharray="3.0,9.0" d="m404.5417 254.32164l143.68506 -1.8897705" fill-rule="evenodd"/><defs><radialGradient id="p.7" gradientUnits="userSpaceOnUse" gradientTransform="matrix(11.524335274589408 -3.457763779221639 3.457763779221639 11.524335274589408 0.0 0.0)" spreadMethod="pad" cx="10.233991450712615" cy="32.12996752597371" fx="10.233991450712615" fy="32.12996752597371" r="11.524334907531738"><stop offset="0.0" stop-color="#fff6db"/><stop offset="1.0" stop-color="#fad25c"/></radialGradient></defs><path fill="url(#p.7)" d="m150.67558 358.4016l0 0c-17.768784 -59.22058 2.9107208 -117.754944 46.18898 -130.74016l0 0c20.782944 -6.235733 44.104355 -0.918808 64.83377 14.781082c20.7294 15.69989 37.168793 40.496735 45.70166 68.935455l0 0c17.768768 59.22058 -2.910736 117.754944 -46.188965 130.74014l0 0c-43.27826 12.9852295 -92.76666 -24.495941 -110.535446 -83.71652z" fill-rule="evenodd"/><path stroke="#595959" stroke-width="1.0" stroke-linejoin="round" stroke-linecap="butt" d="m150.67558 358.4016l0 0c-17.768784 -59.22058 2.9107208 -117.754944 46.18898 -130.74016l0 0c20.782944 -6.235733 44.104355 -0.918808 64.83377 14.781082c20.7294 15.69989 37.168793 40.496735 45.70166 68.935455l0 0c17.768768 59.22058 -2.910736 117.754944 -46.188965 130.74014l0 0c-43.27826 12.9852295 -92.76666 -24.495941 -110.535446 -83.71652z" fill-rule="evenodd"/><path fill="#eeeeee" d="m259.91077 366.48294l0 0c0 -9.697601 7.5371094 -17.559052 16.834625 -17.559052l0 0c4.4648438 0 8.746796 1.8499756 11.9039 5.142914c3.1571045 3.2929688 4.9307556 7.759186 4.9307556 12.416138l0 0c0 9.697601 -7.5371094 17.559052 -16.834656 17.559052l0 0c-9.297516 0 -16.834625 -7.86145 -16.834625 -17.559052z" fill-rule="evenodd"/><path stroke="#595959" stroke-width="1.0" stroke-linejoin="round" stroke-linecap="butt" d="m259.91077 366.48294l0 0c0 -9.697601 7.5371094 -17.559052 16.834625 -17.559052l0 0c4.4648438 0 8.746796 1.8499756 11.9039 5.142914c3.1571045 3.2929688 4.9307556 7.759186 4.9307556 12.416138l0 0c0 9.697601 -7.5371094 17.559052 -16.834656 17.559052l0 0c-9.297516 0 -16.834625 -7.86145 -16.834625 -17.559052z" fill-rule="evenodd"/><path fill="#eeeeee" d="m203.37007 331.36484l0 0c0 -9.697601 7.53714 -17.559052 16.834656 -17.559052l0 0c4.4648285 0 8.74678 1.8499451 11.903885 5.142914c3.1571198 3.2929688 4.9307556 7.759186 4.9307556 12.416138l0 0c0 9.697601 -7.5371246 17.559052 -16.83464 17.559052l0 0c-9.297516 0 -16.834656 -7.86145 -16.834656 -17.559052z" fill-rule="evenodd"/><path stroke="#595959" stroke-width="1.0" stroke-linejoin="round" stroke-linecap="butt" d="m203.37007 331.36484l0 0c0 -9.697601 7.53714 -17.559052 16.834656 -17.559052l0 0c4.4648285 0 8.74678 1.8499451 11.903885 5.142914c3.1571198 3.2929688 4.9307556 7.759186 4.9307556 12.416138l0 0c0 9.697601 -7.5371246 17.559052 -16.83464 17.559052l0 0c-9.297516 0 -16.834656 -7.86145 -16.834656 -17.559052z" fill-rule="evenodd"/><path fill="#eeeeee" d="m203.37007 270.0l0 0c0 -9.697601 7.53714 -17.559052 16.834656 -17.559052l0 0c4.4648285 0 8.74678 1.8499603 11.903885 5.142914c3.1571198 3.2929688 4.9307556 7.759186 4.9307556 12.416138l0 0c0 9.697601 -7.5371246 17.559052 -16.83464 17.559052l0 0c-9.297516 0 -16.834656 -7.86145 -16.834656 -17.559052z" fill-rule="evenodd"/><path stroke="#595959" stroke-width="1.0" stroke-linejoin="round" stroke-linecap="butt" d="m203.37007 270.0l0 0c0 -9.697601 7.53714 -17.559052 16.834656 -17.559052l0 0c4.4648285 0 8.74678 1.8499603 11.903885 5.142914c3.1571198 3.2929688 4.9307556 7.759186 4.9307556 12.416138l0 0c0 9.697601 -7.5371246 17.559052 -16.83464 17.559052l0 0c-9.297516 0 -16.834656 -7.86145 -16.834656 -17.559052z" fill-rule="evenodd"/><path fill="#000000" fill-opacity="0.0" d="m237.03937 270.0l138.77167 -28.094482" fill-rule="evenodd"/><path stroke="#595959" stroke-width="2.0" stroke-linejoin="round" stroke-linecap="butt" d="m237.03937 270.0l138.77167 -28.094482" fill-rule="evenodd"/><path fill="#000000" fill-opacity="0.0" d="m237.03937 331.36484l143.68503 -77.03938" fill-rule="evenodd"/><path stroke="#595959" stroke-width="2.0" stroke-linejoin="round" stroke-linecap="butt" d="m237.03937 331.36484l143.68503 -77.03938" fill-rule="evenodd"/><path fill="#000000" fill-opacity="0.0" d="m288.6493 354.0668l92.09448 -99.74802" fill-rule="evenodd"/><path stroke="#595959" stroke-width="2.0" stroke-linejoin="round" stroke-linecap="butt" d="m288.6493 354.0668l92.09448 -99.74802" fill-rule="evenodd"/><path fill="#000000" fill-opacity="0.0" d="m415.68512 213.78009l0 0c-30.310425 -53.889084 -37.495026 -107.361084 -16.047241 -119.433075l0 0c10.299591 -5.7971725 25.959503 -1.0767365 43.53479 13.122871c17.575256 14.1996 35.62616 36.715218 50.181763 62.593666l0 0c30.310425 53.88907 37.494995 107.36107 16.047241 119.43306l0 0c-21.447784 12.071991 -63.406128 -21.827454 -93.71655 -75.71652z" fill-rule="evenodd"/><path stroke="#595959" stroke-width="1.0" stroke-linejoin="round" stroke-linecap="butt" d="m415.68512 213.78009l0 0c-30.310425 -53.889084 -37.495026 -107.361084 -16.047241 -119.433075l0 0c10.299591 -5.7971725 25.959503 -1.0767365 43.53479 13.122871c17.575256 14.1996 35.62616 36.715218 50.181763 62.593666l0 0c30.310425 53.88907 37.494995 107.36107 16.047241 119.43306l0 0c-21.447784 12.071991 -63.406128 -21.827454 -93.71655 -75.71652z" fill-rule="evenodd"/><path fill="#000000" fill-opacity="0.0" d="m314.79266 298.79578l0 0c-30.310425 -53.889084 -42.07794 -104.78056 -26.283478 -113.66931l0 0c7.584778 -4.268524 20.641083 1.9179535 36.29669 17.198486c15.655579 15.280518 32.62805 38.40338 47.183624 64.28183l0 0c30.310425 53.88907 42.07794 104.78055 26.283478 113.66931l0 0c-7.584778 4.268524 -20.641083 -1.9179688 -36.29669 -17.198486c-15.655579 -15.280518 -32.62805 -38.40338 -47.183624 -64.28183z" fill-rule="evenodd"/><path stroke="#595959" stroke-width="1.0" stroke-linejoin="round" stroke-linecap="butt" d="m314.79266 298.79578l0 0c-30.310425 -53.889084 -42.07794 -104.78056 -26.283478 -113.66931l0 0c7.584778 -4.268524 20.641083 1.9179535 36.29669 17.198486c15.655579 15.280518 32.62805 38.40338 47.183624 64.28183l0 0c30.310425 53.88907 42.07794 104.78055 26.283478 113.66931l0 0c-7.584778 4.268524 -20.641083 -1.9179688 -36.29669 -17.198486c-15.655579 -15.280518 -32.62805 -38.40338 -47.183624 -64.28183z" fill-rule="evenodd"/><path fill="#000000" fill-opacity="0.0" d="m411.9449 418.60892l147.33856 0l0 42.015747l-147.33856 0z" fill-rule="evenodd"/><path fill="#000000" d="m422.3824 445.52893l0 -13.359375l5.046875 0q1.328125 0 2.03125 0.125q0.96875 0.171875 1.640625 0.640625q0.671875 0.453125 1.078125 1.28125q0.40625 0.828125 0.40625 1.828125q0 1.703125 -1.09375 2.890625q-1.078125 1.171875 -3.921875 1.171875l-3.421875 0l0 5.421875l-1.765625 0zm1.765625 -7.0l3.453125 0q1.71875 0 2.4375 -0.640625q0.71875 -0.640625 0.71875 -1.796875q0 -0.84375 -0.421875 -1.4375q-0.421875 -0.59375 -1.125 -0.78125q-0.4375 -0.125 -1.640625 -0.125l-3.421875 0l0 4.78125zm16.802948 7.0l0 -1.421875q-1.125 1.640625 -3.0625 1.640625q-0.859375 0 -1.609375 -0.328125q-0.734375 -0.328125 -1.09375 -0.828125q-0.359375 -0.5 -0.5 -1.21875q-0.109375 -0.46875 -0.109375 -1.53125l0 -5.984375l1.640625 0l0 5.359375q0 1.28125 0.109375 1.734375q0.15625 0.640625 0.65625 1.015625q0.5 0.375 1.234375 0.375q0.734375 0 1.375 -0.375q0.65625 -0.390625 0.921875 -1.03125q0.265625 -0.65625 0.265625 -1.890625l0 -5.1875l1.640625 0l0 9.671875l-1.46875 0zm4.000702 0l0 -13.359375l1.640625 0l0 13.359375l-1.640625 0zm4.1448364 0l0 -13.359375l1.640625 0l0 13.359375l-1.640625 0zm12.647125 0l0 -11.78125l-4.40625 0l0 -1.578125l10.578125 0l0 1.578125l-4.40625 0l0 11.78125l-1.765625 0zm5.1082153 -4.84375q0 -2.6875 1.484375 -3.96875q1.25 -1.078125 3.046875 -1.078125q2.0 0 3.265625 1.3125q1.265625 1.296875 1.265625 3.609375q0 1.859375 -0.5625 2.9375q-0.5625 1.0625 -1.640625 1.65625q-1.0625 0.59375 -2.328125 0.59375q-2.03125 0 -3.28125 -1.296875q-1.25 -1.3125 -1.25 -3.765625zm1.6875 0q0 1.859375 0.796875 2.796875q0.8125 0.921875 2.046875 0.921875q1.21875 0 2.03125 -0.921875q0.8125 -0.9375 0.8125 -2.84375q0 -1.796875 -0.8125 -2.71875q-0.8125 -0.921875 -2.03125 -0.921875q-1.234375 0 -2.046875 0.921875q-0.796875 0.90625 -0.796875 2.765625zm11.078857 4.84375l-2.96875 -9.671875l1.703125 0l1.53125 5.578125l0.578125 2.078125q0.046875 -0.15625 0.5 -2.0l1.546875 -5.65625l1.6875 0l1.4375 5.609375l0.484375 1.84375l0.5625 -1.859375l1.65625 -5.59375l1.59375 0l-3.03125 9.671875l-1.703125 0l-1.53125 -5.796875l-0.375 -1.640625l-1.953125 7.4375l-1.71875 0zm18.00418 -1.1875q-0.921875 0.765625 -1.765625 1.09375q-0.828125 0.3125 -1.796875 0.3125q-1.59375 0 -2.453125 -0.78125q-0.859375 -0.78125 -0.859375 -1.984375q0 -0.71875 0.328125 -1.296875q0.328125 -0.59375 0.84375 -0.9375q0.53125 -0.359375 1.1875 -0.546875q0.46875 -0.125 1.453125 -0.25q1.984375 -0.234375 2.921875 -0.5625q0.015625 -0.34375 0.015625 -0.421875q0 -1.0 -0.46875 -1.421875q-0.625 -0.546875 -1.875 -0.546875q-1.15625 0 -1.703125 0.40625q-0.546875 0.40625 -0.8125 1.421875l-1.609375 -0.21875q0.21875 -1.015625 0.71875 -1.640625q0.5 -0.640625 1.453125 -0.984375q0.953125 -0.34375 2.1875 -0.34375q1.25 0 2.015625 0.296875q0.78125 0.28125 1.140625 0.734375q0.375 0.4375 0.515625 1.109375q0.078125 0.421875 0.078125 1.515625l0 2.1875q0 2.28125 0.109375 2.890625q0.109375 0.59375 0.40625 1.15625l-1.703125 0q-0.265625 -0.515625 -0.328125 -1.1875zm-0.140625 -3.671875q-0.890625 0.375 -2.671875 0.625q-1.015625 0.140625 -1.4375 0.328125q-0.421875 0.1875 -0.65625 0.53125q-0.21875 0.34375 -0.21875 0.78125q0 0.65625 0.5 1.09375q0.5 0.4375 1.453125 0.4375q0.9375 0 1.671875 -0.40625q0.75 -0.421875 1.09375 -1.140625q0.265625 -0.5625 0.265625 -1.640625l0 -0.609375zm4.1882324 4.859375l0 -9.671875l1.46875 0l0 1.46875q0.5625 -1.03125 1.03125 -1.359375q0.484375 -0.328125 1.0625 -0.328125q0.828125 0 1.6875 0.53125l-0.5625 1.515625q-0.609375 -0.359375 -1.203125 -0.359375q-0.546875 0 -0.96875 0.328125q-0.421875 0.328125 -0.609375 0.890625q-0.28125 0.875 -0.28125 1.921875l0 5.0625l-1.625 0zm12.4938965 0l0 -1.21875q-0.90625 1.4375 -2.7030945 1.4375q-1.15625 0 -2.125 -0.640625q-0.96875 -0.640625 -1.5 -1.78125q-0.53125 -1.140625 -0.53125 -2.625q0 -1.453125 0.484375 -2.625q0.484375 -1.1875 1.4375 -1.8125q0.96875 -0.625 2.171875 -0.625q0.8749695 0 1.5468445 0.375q0.6875 0.359375 1.109375 0.953125l0 -4.796875l1.640625 0l0 13.359375l-1.53125 0zm-5.1718445 -4.828125q0 1.859375 0.78125 2.78125q0.78125 0.921875 1.84375 0.921875q1.0780945 0 1.8280945 -0.875q0.75 -0.890625 0.75 -2.6875q0 -1.984375 -0.765625 -2.90625q-0.765625 -0.9375 -1.8905945 -0.9375q-1.078125 0 -1.8125 0.890625q-0.734375 0.890625 -0.734375 2.8125zm8.625702 1.9375l1.625 -0.25q0.125 0.96875 0.75 1.5q0.625 0.515625 1.75 0.515625q1.125 0 1.671875 -0.453125q0.546875 -0.46875 0.546875 -1.09375q0 -0.546875 -0.484375 -0.875q-0.328125 -0.21875 -1.671875 -0.546875q-1.8125 -0.46875 -2.515625 -0.796875q-0.6875 -0.328125 -1.046875 -0.90625q-0.359375 -0.59375 -0.359375 -1.3125q0 -0.640625 0.296875 -1.1875q0.296875 -0.5625 0.8125 -0.921875q0.375 -0.28125 1.03125 -0.46875q0.671875 -0.203125 1.421875 -0.203125q1.140625 0 2.0 0.328125q0.859375 0.328125 1.265625 0.890625q0.421875 0.5625 0.578125 1.5l-1.609375 0.21875q-0.109375 -0.75 -0.640625 -1.171875q-0.515625 -0.421875 -1.46875 -0.421875q-1.140625 0 -1.625 0.375q-0.46875 0.375 -0.46875 0.875q0 0.3125 0.1875 0.578125q0.203125 0.265625 0.640625 0.4375q0.234375 0.09375 1.4375 0.421875q1.75 0.453125 2.4375 0.75q0.6875 0.296875 1.078125 0.859375q0.390625 0.5625 0.390625 1.40625q0 0.828125 -0.484375 1.546875q-0.46875 0.71875 -1.375 1.125q-0.90625 0.390625 -2.046875 0.390625q-1.875 0 -2.875 -0.78125q-0.984375 -0.78125 -1.25 -2.328125z" fill-rule="nonzero"/><path fill="#000000" fill-opacity="0.0" d="m561.7559 321.22046l147.33856 0l0 46.86615l-147.33856 0z" fill-rule="evenodd"/><path fill="#000000" d="m572.5059 351.98047l0 -16.21875l6.109375 0q1.625 0 2.46875 0.15625q1.203125 0.203125 2.0 0.765625q0.8125 0.546875 1.296875 1.5625q0.5 1.0 0.5 2.203125q0 2.078125 -1.3125 3.515625q-1.3125 1.421875 -4.765625 1.421875l-4.15625 0l0 6.59375l-2.140625 0zm2.140625 -8.5l4.203125 0q2.078125 0 2.953125 -0.78125q0.875 -0.78125 0.875 -2.171875q0 -1.03125 -0.515625 -1.75q-0.515625 -0.71875 -1.359375 -0.953125q-0.546875 -0.140625 -2.0 -0.140625l-4.15625 0l0 5.796875zm20.408386 8.5l0 -1.71875q-1.359375 1.984375 -3.71875 1.984375q-1.046875 0 -1.953125 -0.390625q-0.890625 -0.40625 -1.328125 -1.0q-0.4375 -0.609375 -0.609375 -1.484375q-0.125 -0.59375 -0.125 -1.859375l0 -7.28125l1.984375 0l0 6.515625q0 1.5625 0.125 2.109375q0.1875 0.78125 0.796875 1.234375q0.609375 0.4375 1.5 0.4375q0.90625 0 1.6875 -0.453125q0.78125 -0.46875 1.109375 -1.25q0.328125 -0.796875 0.328125 -2.296875l0 -6.296875l1.984375 0l0 11.75l-1.78125 0zm4.115967 -3.5l1.96875 -0.3125q0.15625 1.171875 0.90625 1.8125q0.765625 0.625 2.125 0.625q1.375 0 2.03125 -0.546875q0.671875 -0.5625 0.671875 -1.3125q0 -0.6875 -0.578125 -1.0625q-0.421875 -0.265625 -2.046875 -0.6875q-2.1875 -0.546875 -3.03125 -0.953125q-0.84375 -0.40625 -1.28125 -1.109375q-0.4375 -0.71875 -0.4375 -1.578125q0 -0.796875 0.359375 -1.453125q0.359375 -0.671875 0.984375 -1.125q0.453125 -0.328125 1.25 -0.5625q0.8125 -0.25 1.734375 -0.25q1.375 0 2.421875 0.40625q1.046875 0.390625 1.546875 1.078125q0.5 0.671875 0.6875 1.8125l-1.953125 0.265625q-0.125 -0.90625 -0.765625 -1.40625q-0.640625 -0.515625 -1.796875 -0.515625q-1.375 0 -1.96875 0.453125q-0.578125 0.453125 -0.578125 1.0625q0 0.390625 0.25 0.6875q0.234375 0.328125 0.75 0.53125q0.3125 0.125 1.765625 0.515625q2.109375 0.5625 2.9375 0.921875q0.84375 0.359375 1.3125 1.046875q0.484375 0.6875 0.484375 1.703125q0 1.0 -0.578125 1.875q-0.578125 0.875 -1.671875 1.359375q-1.09375 0.484375 -2.484375 0.484375q-2.296875 0 -3.5 -0.953125q-1.1875 -0.953125 -1.515625 -2.8125zm12.125 3.5l0 -16.21875l1.984375 0l0 5.8125q1.390625 -1.609375 3.515625 -1.609375q1.3125 0 2.265625 0.515625q0.96875 0.515625 1.375 1.421875q0.421875 0.90625 0.421875 2.640625l0 7.4375l-1.984375 0l0 -7.4375q0 -1.5 -0.65625 -2.171875q-0.640625 -0.6875 -1.828125 -0.6875q-0.890625 0 -1.671875 0.46875q-0.765625 0.453125 -1.109375 1.234375q-0.328125 0.78125 -0.328125 2.171875l0 6.421875l-1.984375 0zm26.551208 -1.453125q-1.109375 0.9375 -2.140625 1.328125q-1.015625 0.390625 -2.1875 0.390625q-1.9375 0 -2.984375 -0.9375q-1.03125 -0.953125 -1.03125 -2.421875q0 -0.859375 0.390625 -1.578125q0.40625 -0.71875 1.03125 -1.140625q0.640625 -0.4375 1.4375 -0.65625q0.59375 -0.15625 1.765625 -0.296875q2.421875 -0.296875 3.5625 -0.6875q0 -0.40625 0 -0.515625q0 -1.21875 -0.5625 -1.71875q-0.765625 -0.671875 -2.265625 -0.671875q-1.40625 0 -2.078125 0.5q-0.671875 0.484375 -0.984375 1.734375l-1.953125 -0.265625q0.265625 -1.25 0.875 -2.015625q0.609375 -0.78125 1.75 -1.1875q1.15625 -0.421875 2.671875 -0.421875q1.515625 0 2.453125 0.359375q0.9375 0.34375 1.375 0.890625q0.453125 0.53125 0.625 1.34375q0.09375 0.515625 0.09375 1.84375l0 2.65625q0 2.78125 0.125 3.515625q0.140625 0.734375 0.515625 1.40625l-2.078125 0q-0.3125 -0.625 -0.40625 -1.453125zm-0.15625 -4.4375q-1.09375 0.4375 -3.265625 0.75q-1.21875 0.171875 -1.734375 0.390625q-0.5 0.21875 -0.78125 0.65625q-0.28125 0.421875 -0.28125 0.9375q0 0.796875 0.609375 1.328125q0.609375 0.53125 1.765625 0.53125q1.140625 0 2.03125 -0.5q0.90625 -0.5 1.328125 -1.375q0.328125 -0.671875 0.328125 -2.0l0 -0.71875zm7.256592 5.890625l-3.59375 -11.75l2.0625 0l1.875 6.78125l0.6875 2.53125q0.046875 -0.203125 0.609375 -2.4375l1.875 -6.875l2.046875 0l1.75 6.8125l0.59375 2.25l0.671875 -2.265625l2.015625 -6.796875l1.9375 0l-3.671875 11.75l-2.078125 0l-1.859375 -7.03125l-0.453125 -2.0l-2.390625 9.03125l-2.078125 0zm21.861633 -1.453125q-1.109375 0.9375 -2.140625 1.328125q-1.015625 0.390625 -2.1875 0.390625q-1.9375 0 -2.984375 -0.9375q-1.03125 -0.953125 -1.03125 -2.421875q0 -0.859375 0.390625 -1.578125q0.40625 -0.71875 1.03125 -1.140625q0.640625 -0.4375 1.4375 -0.65625q0.59375 -0.15625 1.765625 -0.296875q2.421875 -0.296875 3.5625 -0.6875q0 -0.40625 0 -0.515625q0 -1.21875 -0.5625 -1.71875q-0.765625 -0.671875 -2.265625 -0.671875q-1.40625 0 -2.078125 0.5q-0.671875 0.484375 -0.984375 1.734375l-1.953125 -0.265625q0.265625 -1.25 0.875 -2.015625q0.609375 -0.78125 1.75 -1.1875q1.15625 -0.421875 2.671875 -0.421875q1.515625 0 2.453125 0.359375q0.9375 0.34375 1.375 0.890625q0.453125 0.53125 0.625 1.34375q0.09375 0.515625 0.09375 1.84375l0 2.65625q0 2.78125 0.125 3.515625q0.140625 0.734375 0.515625 1.40625l-2.078125 0q-0.3125 -0.625 -0.40625 -1.453125zm-0.15625 -4.4375q-1.09375 0.4375 -3.265625 0.75q-1.21875 0.171875 -1.734375 0.390625q-0.5 0.21875 -0.78125 0.65625q-0.28125 0.421875 -0.28125 0.9375q0 0.796875 0.609375 1.328125q0.609375 0.53125 1.765625 0.53125q1.140625 0 2.03125 -0.5q0.90625 -0.5 1.328125 -1.375q0.328125 -0.671875 0.328125 -2.0l0 -0.71875zm5.006531 10.421875l-0.21875 -1.875q0.65625 0.171875 1.140625 0.171875q0.65625 0 1.046875 -0.21875q0.40625 -0.21875 0.65625 -0.625q0.1875 -0.296875 0.609375 -1.46875q0.0625 -0.171875 0.1875 -0.5l-4.46875 -11.765625l2.15625 0l2.4375 6.8125q0.484375 1.28125 0.859375 2.71875q0.34375 -1.375 0.8125 -2.6875l2.515625 -6.84375l1.984375 0l-4.46875 11.953125q-0.71875 1.9375 -1.109375 2.65625q-0.53125 0.984375 -1.21875 1.4375q-0.6875 0.46875 -1.640625 0.46875q-0.578125 0 -1.28125 -0.234375z" fill-rule="nonzero"/><defs><radialGradient id="p.8" gradientUnits="userSpaceOnUse" gradientTransform="matrix(7.678283999830317 -3.664538758424517 3.664538758424517 7.678283999830317 0.0 0.0)" spreadMethod="pad" cx="45.64431608689076" cy="60.9029164348371" fx="45.64431608689076" fy="60.9029164348371" r="7.678284168243408"><stop offset="0.0" stop-color="#bfbfbf"/><stop offset="1.0" stop-color="#737373"/></radialGradient></defs><path fill="url(#p.8)" d="m513.0846 319.54544l97.73303 -46.644073l-3.779541 -7.9212646l23.400818 8.28186l-8.282715 23.403168l-3.77948 -7.9212646l-97.73309 46.644104z" fill-rule="evenodd"/><path stroke="#595959" stroke-width="1.0" stroke-linejoin="round" stroke-linecap="butt" d="m513.0846 319.54544l97.73303 -46.644073l-3.779541 -7.9212646l23.400818 8.28186l-8.282715 23.403168l-3.77948 -7.9212646l-97.73309 46.644104z" fill-rule="evenodd"/><defs><radialGradient id="p.9" gradientUnits="userSpaceOnUse" gradientTransform="matrix(6.860696308060033 -4.403841356382897 4.403841356382897 6.860696308060033 0.0 0.0)" spreadMethod="pad" cx="13.983730470589306" cy="68.61392788742255" fx="13.983730470589306" fy="68.61392788742255" r="6.860696315765381"><stop offset="0.0" stop-color="#bfbfbf"/><stop offset="1.0" stop-color="#737373"/></radialGradient></defs><path fill="url(#p.9)" d="m352.54376 438.4014l4.2357483 -19.41803l3.795288 5.913391l79.29178 -50.896942l7.5905457 11.826782l-79.29178 50.896942l3.795288 5.913391z" fill-rule="evenodd"/><path stroke="#595959" stroke-width="1.0" stroke-linejoin="round" stroke-linecap="butt" d="m352.54376 438.4014l4.2357483 -19.41803l3.795288 5.913391l79.29178 -50.896942l7.5905457 11.826782l-79.29178 50.896942l3.795288 5.913391z" fill-rule="evenodd"/></g></svg>